<svg width="72" height="72" viewBox="0 0 72 72" xmlns="http://www.w3.org/2000/svg"><path d="M72 36c0 19.882-16.118 36-36 36S0 55.882 0 36 16.118 0 36 0s36 16.118 36 36zM44.613 55.344c-.535 0-.856-.267-.802-.802l.11-2.622c-.1 0-3.96 3.798-11.07 3.798-9.36 0-13.16-5.724-13.16-11.34 0-13.162 21.19-10.22 21.19-16.05 0-1.66-1.39-2.676-3.8-2.676-4.544 0-6.524 2.622-6.524 4.762v.856c0 .535-.32.802-.802.802h-7.97c-.48 0-.802-.267-.802-.802V17.735c0-.535.266-.803.8-.803h6.9c.537 0 .858.268.804.803l-.213 2.086c1.87-1.87 4.814-3.21 9.254-3.21 8.08 0 13.053 4.87 13.053 11.72 0 13.06-19.902 11.02-19.902 15.73 0 1.61 1.554 2.84 3.855 2.84 6.15 0 7.22-4.97 7.22-4.97v-.91c0-.535.32-.802.802-.802h7.97c.48 0 .803.268.803.803v13.53c0 .535-.266.8-.8.8h-6.9z" fill="#FFF" fill-rule="evenodd"/></svg>