<svg width="442" height="249" viewBox="0 0 442 249" xmlns="http://www.w3.org/2000/svg"><title>svg-bg-design-L</title><path d="M435.91 242.463h-50.2c-.76.097-1.544.063-2.316.027-.29-.013-.59-.02-.888-.027h-3.828c-.068 0-.134-.007-.2-.01H203.193c-.417 0-.827.02-1.226.037-.4.018-.8.036-1.2.036-1.33 0-2.644-.2-3.77-1.277-1.962-1.88-2.8-6.12-2.8-14.16v-48.75h-.915c-.477 0-.945 0-1.402.01-.432 0-.857.01-1.272.01-2.523 0-4.665-.17-5.988-1.48-.784-.78-1.183-1.88-1.183-3.28v-9.368c0-1.387.374-2.426 1.14-3.173 1.426-1.388 3.807-1.33 6.57-1.253-.217-.27-.347-.6-.347-.957 0-.58.337-1.086.843-1.38-.506-.293-.843-.8-.843-1.38 0-.907.82-1.645 1.83-1.645h.37c-.263-.29-.428-.65-.428-1.05 0-.317.106-.61.28-.864h-2.203c-1.01 0-1.83-.735-1.83-1.642s.82-1.646 1.83-1.646h.37c-.27-.284-.43-.645-.43-1.043 0-.908.82-1.647 1.83-1.647h25.41v-3.944c0-1.775.003-6.627 4.106-8.05l-.975-6.604c-.087-.6.06-1.195.42-1.68s.89-.803 1.49-.89c1.23-.18 2.387.673 2.57 1.91l.694 4.707v-4.88c-.06-.03-.117-.065-.174-.11-.6-.47-.6-1.22-.6-1.47v-5.173c0-1.815 1.365-3.292 3.04-3.292s3.034 1.48 3.034 3.295v5.175c0 .247 0 .997-.6 1.47-.056.044-.114.08-.173.112v4.106l1.14-5.405c.13-.59.476-1.1.98-1.43.51-.33 1.11-.44 1.706-.315 1.22.26 2.005 1.465 1.747 2.688l-1.748 8.275c1.665.99 1.987 3.095 1.987 7.57v11.18c0 2.04.006 3.965-.64 5.453-.094.218-.2.416-.314.6h28.213c-.2-.37-.32-.79-.327-1.24h-1.37c-2.55 0-4.625-2.074-4.625-4.63 0-.653.14-1.28.39-1.85h-9.57c-1.76 0-3.196-1.454-3.196-3.244v-5.344H245V86.86c0-1.79 1.435-3.246 3.2-3.246h20.73l.007-.26-1.176-9.153c-1.37-.47-2.36-1.77-2.36-3.31 0-1.533 2.186-3.902 2.186-3.902l1.8-.514.294-10.976c.02-3.99 3.46-7.235 7.69-7.235h8.433c.92-1.752 2.753-2.95 4.867-2.95h2.4c2.114 0 3.946 1.196 4.87 2.948h10.55c4.24 0 7.69 3.26 7.69 7.266V66.51l1.66.475s2.184 2.37 2.184 3.907-.988 2.84-2.362 3.314l-1.21 9.416h20.775c1.763 0 3.2 1.455 3.2 3.245v56.68h-.03v2.44h5.992c2.42 0 7.4 4.91 7.4 7.296 0 2.377-3.358 5.65-5.79 5.65h-.16l-.518-.15c-.128.4-.308.763-.54 1.084h10c-.51-.702-.814-1.566-.814-2.502l.01-.15 3.734-26.76c.044-2.304 1.92-4.17 4.218-4.17h9.39V80.71c0-2.952 2.4-5.354 5.35-5.354h57.233c2.95 0 5.347 2.405 5.347 5.357v156.4c0 2.952-2.4 5.353-5.346 5.353zm-239.517-64.12v48.753c0 7.088.694 11.198 2.122 12.565.748.72 1.712.71 3.354.64.43-.02.87-.04 1.32-.04h178.98c.11 0 .22.01.34.01l.98.03c.84.04 1.5.06 2.05-.03.52-.08.934-.25 1.3-.6.532-.51.964-1.402 1.294-2.693l.06-.253c.063-.266.122-.55.177-.845.02-.085.036-.166.05-.254.048-.27.09-.55.13-.843.01-.08.02-.17.035-.252.253-1.95.38-4.413.38-7.415v-48.77H196.393v.014zm21.45-30.684h-25.418c-.396 0-.732.25-.732.54 0 .29.336.54.732.54h25.418v-1.094zm0 2.69H190.65c-.396 0-.73.25-.73.54 0 .29.334.54.73.54h27.193v-1.094zm0 3.18v-.67h-23.44c-.396 0-.732.24-.732.54 0 .29.34.54.74.54h23.44v-.42zm.057 2.01h-25.27c-.398 0-.733.25-.733.55 0 .29.335.54.732.54h25.39c-.06-.37-.1-.738-.13-1.095zm.538 2.76h-25.81c-.396 0-.73.25-.73.545 0 .297.334.547.73.547h26.312c-.203-.347-.368-.715-.502-1.093zm4.844-30.69c-.005-.036-.034-.06-.07-.06h-.01l-.056.08.964 6.54.14-.006-.968-6.556zm5.97-4.32v-2.928c0-.593-.384-1.094-.84-1.094-.458 0-.842.5-.842 1.095v4.61c.226-.046.49-.083.77-.09.025 0 .047-.004.07-.004.025 0 .047.005.07.006.282.005.546.04.773.09v-1.68zm-.91 3.795v7.074h.138v-7.07c-.022 0-.047-.007-.07-.007-.02 0-.046.007-.07.01zm5.704-.866h-.01c-.03 0-.066.027-.073.056l-1.706 8.08.136.02 1.705-8.07c.01-.04-.015-.074-.052-.082zm.245 16.386c0-2.24-.03-3.92-.36-4.88-.1-.314-.24-.55-.42-.705-.12-.11-.29-.197-.49-.27-.28-.11-.64-.19-1.07-.246-.04-.007-.09-.01-.14-.018-.33-.04-.7-.067-1.1-.086h-.03c-.332-.013-.7-.024-1.08-.03l-.01-.003c-.347-.008-.713-.01-1.1-.01h-.14c-.35-.005-.713-.006-1.093-.006h-2.702c-.036 0-.07.006-.106.007-.395.003-.76.04-1.095.1-.39.073-.74.19-1.06.347-1.563.78-2.24 2.606-2.24 5.796v10.912c0 .15.002.28.005.424 0 .167.003.337.01.496v.05l.024.5.002.05c.01.174.025.337.04.5.035.395.083.76.146 1.092.037.196.078.38.125.55l.007.024c.05.185.11.36.17.525l.01.025c.08.2.167.383.265.55.294.502.682.858 1.18 1.093.544.26 1.22.38 2.05.38h6.876c.074 0 .14-.002.21-.004.33-.01.62-.037.874-.083 1.145-.21 1.558-.768 1.796-1.315.465-1.07.464-2.77.46-4.574v-11.18zm27.76 13.25h12.61c.39 0 .65-.01.83-.046.39-.08.4-.3.4-.89v-1.5l1.497.133c.75.067 1.527.11 2.228.13l-2.32-1.284-.716.6-.856-.58c-.22-.15-.467-.25-.726-.296h-13.25c-.892.146-1.576.92-1.576 1.85 0 1.04.846 1.888 1.884 1.888zm13.46 2.71h4.29v-.005l-4.21-.004-.07.01zm-28.27-9.692c0 .58.45 1.05 1 1.05h88.98c.556 0 1.006-.47 1.006-1.05v-5.347h-90.98v5.35zm34.49 10.97h21.73l-.33-1.27v-.005l-.36-1.386-.36-1.373-.845-3.227h-17.93l-.057.216-.788 3.01-.11.422-.25.95-.36 1.38-.003.01-.334 1.273zm33.96-4.034c1.52 0 2.75 1.235 2.75 2.755 0 .463-.12.895-.33 1.28h9.72c-.51-.717-.78-1.63-.78-2.736 0-1.865.737-3.586 1.96-4.99h-25.3l.97 3.69h11.02zm-10.3 2.76h10.3-10.3zm24.4-1.46c0 .9.27 1.16.36 1.244.69.673 2.774.62 4.983.564 1.06-.028 2.218-.034 3.326-.02l-1.564-2.985c-.744-.36-1.226-.977-1.442-1.85-2.435.167-3.712.047-4.41-.132-.785.91-1.246 2.008-1.246 3.18zm-56.45-73.506h6.75c-1.303-.118-2.412-.373-2.94-.767-1.26-.95-1.605-2.095-2.903-6.16-.284-.886-.493-1.54-.66-2.023l-.24 8.95zm31.74-9.97s-.747-1.15-1.685-2.148c-.05 0-.1 0-.15-.002-2.993-.04-6.934.847-7.456 2.023-.398.89.225 2.825.814 4.3.65 1.64 1.155 3.115 2.055 3.716.955.64 2.36.775 4.445.738 1.74-.03 3.63.035 4.417-.72.66-.632 1.307-2.6 1.87-4.37.767-2.416 1.138-3.88.337-4.614-.806-.738-2.706-.96-5.05-1.037.613 1.46.4 2.12.4 2.12zm-12.44 1.572h-.1c-2.7.08-2.81 4.47-4.465 6.67 1.064.348 2.016.945 2.78 1.728h2.244c1.055-.93 2.433-1.5 3.95-1.5.083 0 .164.007.245.01-1.845-2.105-1.86-6.823-4.66-6.907zm-4.064 2.603c.588-1.477 1.21-3.41.815-4.3-.52-1.18-4.46-2.067-7.453-2.02-.512.002-1.01.012-1.49.03-.55 1.034-.964 2.194-1.244 2.59-.41.572-.153-1.2.23-2.54-1.846.11-3.3.363-3.98.984-.8.732-.43 2.197.334 4.614.564 1.776 1.21 3.74 1.87 4.375.787.755 2.676.694 4.418.72.315.008.607.008.89.005.9-.46 1.914-.72 3.01-.72.16 0 .324.006.485.02.02-.015.042-.025.062-.04.9-.6 1.404-2.075 2.056-3.713zm-3.525-7.7l-.1-.15s-1.98-.85-3.204-.1l-.015.01c1.026.02 2.134.094 3.32.238zm26.765-14.597c0-1.58-1.485-2.87-3.306-2.87h-4.38c.096.258.15.52.15.794v2.23c0 .44-.13.86-.368 1.256v-.777c0-1.46-1.424-2.74-3.593-3.505h-12.79c-2.17.765-3.594 2.05-3.594 3.506v.78c-.24-.4-.367-.82-.367-1.26v-2.23c0-.27.05-.536.15-.793h-6.33c-1.82 0-3.304 1.29-3.304 2.87v.06l-.41 15.29c1.094-.3 3.272-.87 6.394-.98.54-1.096 1.345-2.185 2.32-2.255 2.14-.307 2.968 1.353 3.29 2.562.08.01.15.017.23.03 5.605.82 4.19 2.684 6.496 2.77h.35c2.19-.08 1.023-1.77 5.723-2.643 1-2.526 3.02-3.846 4.954-1.024.13.185.247.364.356.54 4.165-.036 6.91.786 7.993 1.08l.02.005V55.52zm0 18.553c-.2.495-.458 1.3-.878 2.616-1.3 4.064-1.648 5.21-2.91 6.157-.523.395-1.632.65-2.94.77h6.725v-9.54zm26.44 12.786c0-.578-.454-1.05-1.008-1.05H248.22c-.555 0-1.005.472-1.005 1.05v54.48h91.037V86.86zm9.216 64.532l1.33 5.105c1.24-.6 2.81-2.28 2.81-3.224-.012-1.19-4-5.1-5.202-5.1h-5.99v.71c0 .037-.002.073-.004.11-.015.477-.132.93-.33 1.332-.233.47-.573.875-.99 1.182-.45.332-.99.548-1.57.603v.78c0 .96.242 1.035.48 1.106l.437.134 2.1 4.016c.156.297.444.408.6.448.32.08.67.032.988-.135.59-.31.884-.94.67-1.43l-.024-.06-.232.095-1.912-4.63.6-.25.414-.17 1.014-.42 1 2.42.658 1.585.29.085 1.52.44.35.104-1.116-4.28.087-.026.973-.254 1.063-.28zm-41.97 10.66H193.29c-.745 0-1.468-.02-2.16-.04-.59-.016-1.17-.03-1.72-.03-1.485 0-2.737.115-3.297.66-.117.115-.475.464-.475 1.6v9.363c0 .8.177 1.363.535 1.72.89.88 3.224.854 5.694.83.464-.006.94-.01 1.425-.01h.915v-.014H391.17v.014h.356c.488 0 .964.006 1.428.01 2.47.026 4.805.05 5.695-.83.05-.05.08-.106.12-.16.122-.162.222-.354.29-.59.042-.15.072-.322.09-.51.017-.144.03-.294.03-.46v-9.362c0-1.135-.36-1.484-.477-1.6-.77-.746-2.833-.69-5.017-.63-.69.02-1.414.04-2.16.04H305.5zm125.11-48.526h-46.62c-1.14 0-1.944.13-2.364.246v12.5h1.55c2.326 0 4.218 1.91 4.218 4.253l-.01.15-1.567 11.23h44.795c.93 0 1.72.06 2.37.18v-28.31c-.42-.113-1.224-.245-2.364-.245zm2.366-2.017V83.29c-.42-.115-1.226-.25-2.366-.25h-46.62c-1.14 0-1.948.135-2.368.25v28.216c.65-.12 1.44-.18 2.37-.18h46.616c.93 0 1.717.06 2.364.18zm-2.366 32.59H385.5l-.068.494-1.792 12.842c-.005.272-.038.54-.093.8l.488 1.616h7.485c.724 0 1.427-.02 2.1-.038 2.776-.08 5.176-.143 6.606 1.25.768.75 1.14 1.788 1.14 3.176v8.14h29.237c.93 0 1.718.06 2.365.18v-28.21c-.42-.114-1.225-.246-2.365-.246zm0 30.48H401.3c-.033.206-.078.4-.13.59-.19.68-.518 1.26-.98 1.72-1.543 1.526-4.193 1.5-7.263 1.466-.457-.006-.925-.01-1.403-.01h-.354v25.103h39.437c1.14 0 1.945-.133 2.365-.248V174.82c-.42-.112-1.226-.245-2.366-.245zm0 31.067h-39.44v21.46c0 2.965-.118 5.41-.36 7.414h39.795c.38 0 .717-.015 1.02-.04.61-.046 1.065-.13 1.345-.206v-28.38c-.42-.117-1.224-.25-2.364-.25zm-49-46.24l-.36-1.188-.73-2.403-1.096-3.633-3.84-12.725h-4.15c-.098.093-.294.43-.3.98l.963 17.957c0 .57.2.916.3 1.01h9.21zm-8.277-30.94h-9.39c-1.112 0-2.02.92-2.02 2.053l-.01.15-3.733 26.747c.036 1.1.93 1.99 2.02 1.99h9.83c-.075-.307-.117-.635-.12-.98l-.964-17.96c0-1.8 1.067-3.21 2.427-3.21h5.85l2.21 7.33 1.098 3.634 1.1 3.635.4 1.32 1.2-8.6.065-.458.09-.64.062-.47.087-.627.066-.478 1.6-11.454c-.04-1.1-.93-1.982-2.028-1.982h-9.835zM439.07 80.7c0-1.74-1.416-3.156-3.155-3.156h-57.23c-1.74 0-3.154 1.417-3.154 3.157v45.57h3.9V82.75c0-1.26 1.54-1.9 4.56-1.9h46.62c3.03 0 4.56.64 4.56 1.9v152.06c0 1.016-1 1.627-2.96 1.827-.5.208-1.03.327-1.593.327H390.4c-.313 1.39-.725 2.478-1.247 3.303h46.76c1.74 0 3.155-1.416 3.155-3.157V80.705zM412.6 211.93H402c-1.434 0-2.6-1.167-2.6-2.6 0-1.437 1.166-2.604 2.6-2.604h10.596c1.433 0 2.6 1.166 2.6 2.6 0 1.435-1.167 2.6-2.6 2.6zm0-3.007H402c-.225 0-.406.182-.406.405 0 .224.182.405.406.405h10.596c.223 0 .405-.18.405-.405 0-.223-.18-.405-.4-.405zm0-27.555H402c-1.434 0-2.6-1.167-2.6-2.602 0-1.437 1.166-2.604 2.6-2.604h10.596c1.433 0 2.6 1.167 2.6 2.603 0 1.434-1.167 2.6-2.6 2.6zm0-3.01H402c-.225 0-.406.184-.406.408 0 .222.182.404.406.404h10.596c.223 0 .405-.182.405-.405 0-.225-.18-.407-.4-.407zm0-26.456H402c-1.434 0-2.6-1.167-2.6-2.602 0-1.434 1.166-2.602 2.6-2.602h10.596c1.433 0 2.6 1.168 2.6 2.603 0 1.44-1.167 2.61-2.6 2.61zm0-3.008H402c-.225 0-.406.182-.406.406 0 .224.182.406.406.406h10.596c.223 0 .405-.183.405-.406 0-.223-.18-.405-.4-.405zm0-60.08H402c-1.434 0-2.6-1.166-2.6-2.6 0-1.437 1.166-2.604 2.6-2.604h10.596c1.433 0 2.6 1.168 2.6 2.604 0 1.435-1.167 2.6-2.6 2.6zm0-3.007H402c-.225 0-.406.18-.406.404 0 .23.182.41.406.41h10.596c.223 0 .405-.18.405-.4 0-.224-.18-.406-.4-.406zm0 34.974H402c-1.434 0-2.6-1.16-2.6-2.6 0-1.43 1.166-2.6 2.6-2.6h10.596c1.433 0 2.6 1.17 2.6 2.61 0 1.437-1.167 2.604-2.6 2.604zm0-3H402c-.225 0-.406.18-.406.408 0 .225.182.406.406.406h10.596c.223 0 .405-.18.405-.406 0-.224-.18-.406-.4-.406zm-119.87-9.914c1.35 0 2.534.707 3.213 1.767.38.594.604 1.298.604 2.055 0 2.11-1.712 3.82-3.817 3.82-2.104 0-3.816-1.71-3.816-3.82 0-.79.24-1.526.656-2.14.687-1.01 1.847-1.68 3.16-1.68zm0 5.995c1.197 0 2.17-.975 2.17-2.173 0-.743-.377-1.4-.95-1.792-.35-.24-.77-.38-1.222-.38-.41 0-.792.12-1.12.32-.626.38-1.05 1.065-1.05 1.852 0 1.2.973 2.173 2.17 2.173zm-7.82-34.896c.18.166.285.37.285.584 0 .597-.78 1.08-1.747 1.08-.964 0-1.747-.483-1.747-1.08 0-.216.11-.417.29-.586.05-.05.117-.093.18-.14.077-.05.16-.093.248-.134h-1.676v-.59h4.403v.59h-.646c.09.04.17.09.246.14.064.045.124.09.176.14zm17.8-.1c.062.043.122.09.174.137.18.168.284.37.284.587 0 .597-.782 1.08-1.747 1.08-.96 0-1.74-.483-1.74-1.08 0-.216.106-.42.28-.587.05-.05.11-.098.18-.14.074-.05.155-.1.244-.14h-.643v-.595h4.4v.594h-1.673c.09.04.17.084.245.135zm91.114-20.296c-5.512 4.026-12.285 6.24-19.073 6.24-3.19 0-6.36-.474-9.44-1.413-5-1.525-9.56-4.247-13.26-7.91l-9.07 2.688c-.204.06-.414.09-.62.09-.75 0-1.466-.385-1.873-1.05-.52-.85-.402-1.94.283-2.66l5.85-6.156c-4.38-7.726-5.42-16.9-2.82-25.434 2.06-6.78 6.164-12.56 11.864-16.72C361.164 2.216 367.94 0 374.726 0c3.188 0 6.365.476 9.442 1.415 17.065 5.207 26.717 23.345 21.517 40.432-2.062 6.775-6.165 12.557-11.865 16.72zM383.53 3.514c-2.93-.89-5.89-1.32-8.802-1.32-12.924 0-24.876 8.386-28.84 21.406-2.68 8.81-1.135 17.9 3.464 25.09l-7.006 7.37L352.684 53c3.5 3.762 7.997 6.684 13.26 8.29 2.93.894 5.89 1.32 8.8 1.32 12.926 0 24.878-8.383 28.84-21.404 4.857-15.953-4.124-32.828-20.057-37.69zm11.85 37.58c.686 1.16.59 2.66-.313 3.73l-1.1 1.303c-.613.728-1.51 1.144-2.462 1.144-.41 0-.812-.07-1.188-.22-.323 1.32-1.457 2.326-2.86 2.45l-1.71.15c-.085.006-.17.01-.255.01-1.29 0-2.44-.774-2.95-1.914-.484.278-1.034.426-1.603.426-.76 0-1.5-.27-2.08-.762l-1.3-1.1c-1.05-.882-1.4-2.304-.96-3.546-1.26-.355-2.22-1.465-2.34-2.832l-.018-.15c-.65-.045-1.28-.276-1.79-.68l-.07-.058-.01.09c-.19 1.63-1.574 2.864-3.216 2.864h-2.46c-1.64 0-3.024-1.232-3.215-2.87v-.02c-.568.445-1.274.69-1.993.69-.86 0-1.67-.338-2.28-.95l-1.75-1.753c-1.127-1.14-1.25-2.934-.3-4.215-1.582-.236-2.764-1.597-2.764-3.208V27.2c0-1.633 1.213-3.008 2.835-3.216l-.01-.01c-1.02-1.292-.915-3.143.25-4.307l1.75-1.754c.61-.606 1.42-.94 2.28-.94.723 0 1.44.25 2.01.7l.035.03.038-.016.01-.04c.19-1.635 1.575-2.867 3.216-2.867h2.462c1.643 0 3.025 1.23 3.217 2.868v.017c.57-.44 1.275-.685 1.993-.685.866 0 1.68.338 2.29.95l1.747 1.748c1.13 1.143 1.25 2.94.3 4.218 1.584.233 2.77 1.595 2.77 3.207v.852c.533-.733 1.36-1.24 2.326-1.324l1.71-.144c.086-.007.17-.01.256-.01 1.293 0 2.44.775 2.95 1.915.485-.28 1.037-.43 1.607-.43.76 0 1.5.27 2.08.763l1.3 1.1c1.054.89 1.403 2.32.957 3.554 1.258.36 2.208 1.47 2.328 2.833l.147 1.71c.11 1.37-.66 2.633-1.858 3.19zm-15.995-14.01c0-.53-.396-.973-.924-1.035l-1.45-.17c-.19-.76-.49-1.48-.87-2.16l.89-1.13c.33-.416.3-1.01-.08-1.39l-1.74-1.737c-.2-.204-.46-.307-.73-.307-.23 0-.46.076-.65.23l-1.09.867c-.71-.42-1.47-.736-2.263-.95l-.166-1.42c-.06-.53-.506-.926-1.035-.926h-2.47c-.527 0-.973.4-1.035.93l-.167 1.415c-.818.22-1.598.55-2.324.982l-1.137-.9c-.19-.154-.42-.228-.646-.228-.27 0-.538.102-.74.303l-1.74 1.744c-.378.38-.41.97-.08 1.39l.95 1.2c-.38.69-.67 1.42-.86 2.18l-1.52.173c-.527.06-.923.51-.923 1.036v2.465c0 .53.396.975.924 1.04l1.6.182c.203.693.483 1.362.84 1.99l-1.013 1.277c-.33.416-.294 1.01.08 1.39l1.74 1.74c.2.2.467.306.735.306.23 0 .46-.077.65-.23l1.268-1.003c.65.375 1.34.67 2.065.875l.19 1.63c.06.53.507.93 1.035.93h2.462c.53 0 .977-.4 1.04-.928l.18-1.572c.775-.2 1.518-.5 2.215-.894l1.227.97c.1.08.208.136.322.173.14-1.1.833-2.058 1.833-2.52-.685-1.16-.588-2.657.31-3.72l1.103-1.317c.51-.605 1.216-.99 1.99-1.106v-1.79zm15.52 9.298c-.046-.52-.47-.93-.995-.942l-1.036-.033c-.213-.602-.5-1.173-.86-1.7l.565-.85c.29-.44.21-1.026-.19-1.365l-1.3-1.1c-.19-.163-.43-.244-.67-.244-.256 0-.51.095-.708.28l-.72.678c-.606-.294-1.25-.5-1.914-.62l-.203-.992c-.098-.484-.53-.83-1.016-.83-.026 0-.053.003-.08.005l-1.697.14c-.52.04-.926.47-.943.992l-.032 1.01c-.65.233-1.267.555-1.83.96l-.384-.256-.476-.314c-.17-.11-.36-.164-.547-.168-.006 0-.013-.005-.02-.005-.292 0-.582.124-.786.364l-.186.222-.91 1.087c-.14.168-.214.367-.233.57-.028.285.06.58.272.803l.3.32.45.48c-.26.588-.448 1.204-.555 1.836l-1.07.22c-.01 0-.02.002-.03.005-.388.093-.678.396-.768.77-.023.103-.036.21-.027.32l.092 1.113.05.587c.047.52.47.93.996.945l1.16.04c.21.553.485 1.077.82 1.57l-.648.98c-.29.436-.21 1.02.19 1.36l1.3 1.097c.193.16.43.242.665.242.254 0 .508-.097.705-.284l.85-.796c.56.26 1.144.454 1.746.57l.238 1.165c.097.484.527.83 1.014.83.03 0 .056 0 .084-.005l1.697-.143c.52-.046.93-.47.947-.997l.04-1.14c.617-.22 1.204-.514 1.744-.882l.938.62c.175.116.374.17.57.17.295 0 .585-.124.788-.365l1.098-1.3c.338-.4.32-.99-.037-1.37l-.752-.8c.28-.59.48-1.21.597-1.845l1.03-.21c.513-.104.87-.58.826-1.1l-.143-1.698zM386 41.3c-.097.01-.19.015-.287.015-1.71 0-3.17-1.32-3.315-3.057-.157-1.835 1.21-3.454 3.04-3.607.097 0 .193-.01.287-.01 1.714 0 3.174 1.32 3.318 3.06.157 1.84-1.21 3.46-3.04 3.61zm-.276-4.464c-.03 0-.063 0-.1.004-.408.033-.66.265-.774.4-.113.135-.3.423-.264.835.05.584.545 1.042 1.13 1.042.033 0 .066 0 .104-.005.407-.033.658-.264.772-.4.114-.134.3-.422.265-.833-.048-.59-.544-1.05-1.13-1.05zm-17.684-4.474c-2.245 0-4.073-1.83-4.073-4.077s1.828-4.078 4.073-4.078 4.072 1.83 4.072 4.078-1.827 4.078-4.072 4.078zm0-5.957c-1.036 0-1.88.843-1.88 1.88s.844 1.88 1.88 1.88 1.878-.843 1.878-1.88-.842-1.88-1.878-1.88zM111.332 175.407c0 5.512-7.12 9.986-11.767 9.986h-.347l-.16-.114-4.74 46.23H78.606l-1.788-38.02-9.643.55-2.355 37.46H49.86l-5.048-46.72c-.135.14-.208.22-.212.224l-.328.374h-.497c-3.31 0-6.163-2.37-7.48-5.773-1.13.377-2.336.59-3.59.59-6.28 0-11.39-5.116-11.39-11.405 0-.296.02-.587.044-.878-.73-.534-1.41-1.23-2.02-2.116-4.42-6.445-11.11-18.847-6.93-30.14H0v-120.7h201.06V135.67h-93.213l3.485 39.735zm-64.39 8.677l.015.092 4.878 45.138h10.923l2.21-35.14-4.687.267-.13-2.19 7.18-.48-.004.08 11.59-.66 1.795 38.138h11.64l4.63-45.206.02-.073.015-.065c-4.377-2.626-15.636-8.557-28.07-8.557-8.208 0-14.378 2.607-18.11 4.793-1.665.975-3.003 1.954-4.01 2.774.05.68.124 1.09.127 1.104zm-9.165-7.605c.044.4.105.79.194 1.17.09.37.21.73.33 1.08.92 2.46 2.8 4.23 5.03 4.44.27-.28.7-.7 1.26-1.19.324-.29.697-.61 1.117-.94.353-.29.74-.58 1.16-.89 4.146-3.02 11.55-6.95 22.08-6.95 12.354 0 23.3 5.407 28.34 8.345.393.23.75.444 1.07.64.414.254.767.477 1.048.66.2.13.37.242.5.33 3.61-.215 9.205-3.855 9.25-7.735l-3.49-39.78-.097-1.1-.1-1.097-.26-2.957-.097-1.1-.076-.882-.02-.215-.077-.888-.093-1.095-.692-7.898-.13-1.514-.14-1.594-.55-6.275c0-.535-.04-1.06-.12-1.57.06 1.84-.185 3.987-.64 6.37-.086.455-.18.916-.28 1.386-.03.12-.05.24-.08.363.398.53.685 1.192.818 1.926.055.295.087.6.087.917 0 2.313-1.51 4.186-3.375 4.185-.14 0-.275-.018-.41-.037.255.435.406.964.406 1.537 0 .254-.037.494-.092.727-.104.443-.294.84-.557 1.16-.244.298-.546.52-.88.664-.244.103-.5.17-.775.17-.577 0-1.1-.253-1.506-.666-.926.81-1.908 1.518-2.928 2.123-.7.414-1.42.78-2.148 1.097-1.068.47-2.158.835-3.254 1.1-1.446.348-2.9.525-4.316.525-1.43-.005-2.804-.19-4.114-.53-1.06-.272-2.08-.642-3.05-1.1-.693-.323-1.362-.692-2.005-1.096-3.71-2.327-6.55-5.857-8.19-9.424-1.354-2.942-2.71-7.32-3.76-11.95-10.24-1.202-15.02-2.6-15.602-5.67h-.62c-1.08 0-2.1.37-2.98 1.015-.363.266-.703.58-1.02.935-.31.35-.584.735-.832 1.156-.77 1.308-1.23 2.928-1.23 4.687l-.11 3.32-.036 1.17-.036 1.16-.414 12.82-.028.786-.023.714-.01.385-.02.63-.017.47v.014l-.037 1.09-.05 1.584-.01.266-.036 1.1-.035 1.1-.75 23.174-.04 1.253-.044 1.306-.453 14.014c0 .357.026.707.063 1.053zM124.07 51.67c.064-.047.115-.104.16-.164.22-.295.234-.71 0-1.018l-.393-.537-.654-.89-.635-.86-.96-1.31-3.732-5.095c-.27-.355-.798-.427-1.168-.145-.177.135-.29.333-.322.557-.03.225.028.447.163.624l4.68 6.406.65.89.65.89.372.512c.02.028.045.05.067.073.04.04.083.076.13.11.29.194.683.2.977-.03zm-.602 6.16c.775-.162 2.085-.815 2.443-4.112-.12-.135-.24-.285-.37-.43-.04.043-.08.09-.14.13-.37.288-.79.466-1.23.554.04.538-.01 1.123-.17 1.746-.04.16-.09.36-.16.58-.09.325-.31 1.058-.37 1.535zm1.065-10.643l.712.973.743 1.014c.428.563.613 1.234.596 1.897.373.53.78 1.03 1.207 1.42l.4.36-.04.54c-.38 5.14-2.8 6.476-4.77 6.69-.92.1-1.43-.33-1.652-.6-.814-.975-.353-2.536.018-3.79.056-.19.106-.355.14-.49.197-.793.14-1.45-.146-1.77-.05-.036-.1-.08-.15-.12-.3-.18-.718-.14-.96-.09-.65.13-1.66 2.627-1.874 7.767-.084 2.05 2.168 6.57 3.864 9.603.86-1.668 2.54-2.946 4.392-3.576 2.07-.702 4.537-.64 6.59.543.136-.39.257-.738.36-1.028 1.66-4.6 1.166-8.95.927-11.04-.03-.27-.06-.5-.08-.69-.14-1.56-1.54-2.86-2.134-3.413-.263-.244-.584-.572-.935-.93-.682-.7-2.102-2.15-2.65-2.293-.163-.043-.28-.1-1.13-.514-.44-.215-1.25-.61-2.006-.96-.368-.17-.72-.322-1.01-.442-.155-.06-.295-.117-.407-.155-.156.096-.364.235-.52.387l.524.72zm10.38 25.24c-.122-.316-.26-.6-.407-.87-.23-.42-.486-.786-.764-1.102-.275-.315-.57-.58-.884-.8-1.588-1.124-3.57-1.114-5.154-.577-1.892.644-3.548 2.177-3.508 4.03.006.268.047.544.13.824.132.458.26.925.38 1.4.125.505.242 1.02.345 1.544.05.233.09.467.13.703.06.32.11.64.15.97.05.36.087.72.11 1.09.287 3.86-.49 8.17-3.8 12.89-2.1 2.99-7.2 6.44-11.85 9.17l8.918 14.28c5.84-3.496 12.654-9.466 16.015-14.252 5.35-7.62 3.85-17.875 1.64-25.15-.465-1.535-.963-2.94-1.435-4.16zm-16.963 46.517l-.585-.937-.59-.94-8.902-14.26-.452-.725c-.04-.068-.08-.14-.13-.21-.23-.34-.52-.68-.82-.8-.04-.017-.07-.032-.11-.04-.572-.113-1.6.617-2.68 1.39l-.172.123c.024.034.05.065.075.1.21.298.4.612.58.94.173.318.33.652.47.995.56 1.337.885 2.84.89 4.434l.72 8.2.118 1.338.117 1.314.536 6.14c6.284-1.17 11.82-3.714 12.33-4.85l-1.38-2.21zm-56.35-17.67l.032-1.1.03-1.1.378-13.952c-.52.175-1.118.274-1.764.274-2.152 0-3.774-1.08-3.774-2.51v-5.94c0-1.43 1.622-2.51 3.774-2.51 1.86 0 3.32.805 3.684 1.95l2.732 1.086 5.514 12.76c6.87-6.22 13.14-4.506 16.394-2.888 1.33.66 4.488 2.744 6.695 2.955l-1.02-26.13c-.002-1.06-1.897-4.24-5.07-7.8-3.344-3.76-6.116-5.73-7.124-5.73l-21.18-.01c-1 0-3.63 1.87-6.74 5.45-2.942 3.395-4.703 6.483-4.703 7.51l-.74 35.47-.022 1.1-.007.436c0 .23.086.45.24.66 1.16 1.6 6.454 2.625 12.745 3.397-.044-.22-.09-.44-.132-.66l.075-2.737zm.254-18.49v-5.73c-.15-.14-.69-.42-1.578-.42-.89 0-1.43.28-1.58.418v5.73c.15.138.69.417 1.58.417.89 0 1.427-.28 1.578-.42zM92.17 92.21c-4.79-2.903-6.176 3.95-6.176 3.95 0 1.086.885 2.116 2.153 2.916.715.45 1.55.824 2.423 1.096 1.83.57 3.8.67 5.108.017.013-.01.025-.01.037-.02.338-.18.633-.4.864-.69l.05-.416.04-.406c-.28.106-.646.2-1.05.26-.292.042-.602.07-.912.07-1.72-.003-4.04-.805-2.78-.95 1-.115 2.3-.15 3.656-.074.347.02.697.045 1.047.078.024 0 .037.005.057.007l.053.01c.03-.25.056-.524.083-.8l-.168-.02c-.408-.055-.777-.1-1.106-.14-3.9-.47-2.79.023-4.77-.77-2.184-.873-2.76-1.092-2.76-1.092s-.594.655-.643.162c-.05-.49.5-.982 1.045-1.09.544-.11.05.49.05.49s1.82 1.257 4.55 1.477c1.9.152 1.912.103 2.51.225.23.046.557.12 1.107.24l.225.05.005.02c.093-1.046.155-2.09.077-2.486-.103-.53-.25-.85-.44-1.05-.275-.29-.64-.324-1.112-.32-.775.004-1.833.094-3.23-.75zM37.5 114l.034-1.11.036-1.117.09-2.746c0-1.396.243-2.725.677-3.933-.625.22-1.33.494-2.126.842-5.92 2.58-10.8 6.38-11.04 7.62l1.85 1.834.78.776.79.783 8.54 8.47.37-11.43zm-.7 21.67h-.12c-2.347 2.523-4.35 5.068-5.16 7.092-2.46 6.133-1.48 10.725.39 14.674.263-.02.53-.04.8-.04 1.17 0 2.304.176 3.37.51l.72-22.24zm-4.09 42.337c1.05 0 2.053-.185 2.993-.51-.12-.676-.185-1.375-.185-2.093v-.035l.49-15.16c-.93-.36-1.927-.57-2.97-.61 1.79 3.202-.12 6.656-2.94 8.42-1.287.802-2.843 1.297-4.435 1.297-.714 0-1.434-.1-2.14-.313.113 4.98 4.185 8.996 9.184 8.996zm-11.556-13.443c.217.317.446.59.68.842.296.316.603.59.92.81.323.23.654.41.99.55 1.817.756 3.762.29 5.193-.604 1.94-1.213 3.31-3.49 2.177-5.498-.154-.275-.307-.554-.46-.836-.174-.328-.346-.66-.514-1-.162-.332-.32-.67-.472-1.01-1.86-4.186-2.826-9.29-.187-15.878.75-1.86 2.34-4.057 4.26-6.275.32-.366.64-.733.98-1.1.34-.366.68-.73 1.03-1.097.385-.406.776-.81 1.17-1.208l.057-1.748.037-1.1.03-.995-.103-.103-9.957-9.88c-2.8 2.715-5.72 6.293-8.12 9.88-.246.366-.484.732-.717 1.097-.237.37-.464.74-.686 1.1-.61 1.01-1.17 2-1.66 2.96-.19.37-.365.74-.534 1.1-.17.38-.332.74-.48 1.1-.046.11-.094.21-.135.32-4.196 10.474 2.278 22.4 6.51 28.58zm-18.96-31.092H13.35c.45-.948.972-1.94 1.552-2.956H2.194v2.953zm196.67-116.32H2.196V128.32h14.03c1.68-2.663 3.693-5.398 5.84-7.89.885-1.03 2.04-2.298 3.335-3.55l-1.84-1.83c-.62-.615-1.3-2 1.05-4.37 2.69-2.705 10.15-7.193 15.18-8.28 1.516-2.033 3.7-3.324 6.14-3.324h.59l.74-35.5c0-2.742 4.37-7.917 5.243-8.926 1.62-1.868 5.683-6.212 8.4-6.212l21.187.01c4.115.003 14.387 11.974 14.386 15.68l1.15 29.492c.92 1.915 1.984 4.318 2.867 6.255.537.277 1.04.627 1.514 1.03l.396-.277c1.55-1.1 2.884-2.053 4.383-1.753.63.125 1.2.466 1.728 1.024 4.5-2.63 9.41-5.91 11.326-8.64 3.366-4.79 3.828-9.02 3.25-12.897-.19-1.31-.503-2.585-.863-3.824-.05-.174-.086-.347-.12-.52l-.003-.003-.1-.138c-.574-.936-5.6-9.227-5.445-13.007.17-4.14.79-6.99 1.85-8.53-.177.01-.35.025-.526.025-.27 0-.542-.015-.813-.04-.603-.058-1.046-.594-.99-1.198.004-.03.01-.06.02-.09.1-.56.61-.95 1.177-.9.62.06 1.237.014 1.835-.1l-4.33-5.916c-.48-.63-.69-1.428-.58-2.235.11-.806.52-1.52 1.164-2.01 1.33-1.016 3.24-.757 4.255.577l3.087 4.214c.3-.247.59-.425.786-.544.05-.03.09-.05.12-.073.19-.15.38-.236.64-.25l.002-.02c0-.446-.05-.896-.14-1.334-.124-.564.215-1.115.76-1.277.026-.008.052-.02.08-.026.594-.124 1.176.253 1.3.846.128.586.19 1.19.19 1.792 0 .23-.01.453-.027.68.644.286 1.454.673 2.495 1.182.368.18.653.322.783.38 1.04.302 2.152 1.38 3.6 2.86.324.333.62.635.86.86.78.727 2.61 2.43 2.83 4.825.016.18.04.394.07.644.256 2.257.79 6.95-1.044 12.034-.14.39-.31.888-.507 1.448l-.11.32c.618.7 1.154 1.555 1.56 2.6.607 1.57 1.255 3.437 1.83 5.496l4.603 4.61c.428.43.428 1.124 0 1.553-.215.212-.495.32-.776.32-.28 0-.56-.11-.776-.324l-2.077-2.08c1.36 6.975 1.365 15.207-3.26 21.795-2.68 3.816-7.5 8.48-12.578 12.174-1.1.8-2.516 1.77-4.06 2.69l1.37 2.2c.463.742.813 2.247-2.02 4.015-2.37 1.477-7.452 3.3-12.025 4.13l.01.105h91.66V17.155zm0 116.32v-2.956h-91.47l.26 2.953h91.21zM141.17 30.548l.015-.024c.363-.486 1.05-.584 1.535-.22 1.04.78 2.04 1.647 2.968 2.576.688.69 1.345 1.423 1.953 2.177.38.472.31 1.164-.16 1.544 0 .01-.01.01-.02.02-.2.16-.43.23-.67.23-.32 0-.63-.14-.85-.4-.56-.694-1.16-1.37-1.8-2.004-.85-.855-1.77-1.653-2.73-2.372-.47-.355-.57-1.027-.23-1.51zm5.324 55.855c.428-.43 1.123-.43 1.552 0l.704.706c.245.24.562.37.91.37l3.674-.13c.597-.03 1.114.45 1.135 1.06.02.6-.46 1.11-1.06 1.13l-3.75.13c-.93 0-1.8-.36-2.46-1.018l-.71-.71c-.43-.43-.43-1.124 0-1.553zm8.22 5.94c.02-.607.536-1.08 1.132-1.063.605.02 1.08.528 1.06 1.134l-.07 2.204c0 .39.128.71.364.942.242.248.562.38.89.38h.056l.494-.017c.598-.013 1.113.454 1.134 1.06.02.607-.454 1.115-1.06 1.136l-.493.01h-.13c-.91 0-1.8-.38-2.44-1.03-.64-.634-1.01-1.51-1.01-2.458l.01-.11.07-2.204zm1.506-13.28c.43-.43 1.123-.43 1.552 0l4.655 4.66c.428.43.428 1.124 0 1.554-.214.214-.495.32-.776.32-.28 0-.56-.106-.77-.32l-4.65-4.66c-.424-.43-.424-1.125 0-1.555zm7.057 18.577c.01-.318.16-.596.382-.79.2-.175.46-.28.75-.27.6.023 1.08.532 1.05 1.138l-.197 5.36c0 .24.05.45.15.64.24.46.12 1.008-.257 1.332-.066.056-.135.107-.214.148-.16.084-.333.124-.503.124-.398 0-.78-.216-.975-.594-.26-.5-.398-1.06-.398-1.62V103l.194-5.36zm7.23 6.627l2.3-.08c.304-.004.6.107.813.323.216.214.332.51.322.813l-.144 4.283c-.02.594-.507 1.062-1.096 1.062h-.037c-.605-.02-1.08-.53-1.06-1.136l.104-3.108-1.13.04c-.6.01-1.12-.455-1.14-1.062-.02-.606.45-1.115 1.06-1.135zm5.213 8.525l6.542-.727c.6-.07 1.145.367 1.212.97.067.603-.368 1.146-.97 1.213l-6.542.728c-.04.004-.082.007-.123.007-.56 0-1.03-.416-1.09-.978-.01-.023 0-.046 0-.07-.03-.573.39-1.078.97-1.143zm5.153-19.85c.428-.428 1.124-.428 1.552 0l3.486 3.492c.59.57.95 1.34 1.01 2.158.05.6-.4 1.122-.99 1.176l-.01.004c-.03.002-.058.002-.086.002-.567 0-1.047-.437-1.092-1.014-.02-.283-.15-.562-.36-.764l-3.493-3.5c-.43-.43-.43-1.124 0-1.553zm5.268 9.225c.61-.055 1.14.39 1.2.994l.6 6.57c.06.61-.39 1.14-.99 1.2-.03.005-.06.006-.09.006h-.006c-.56 0-1.04-.43-1.09-.997l-.6-6.565c-.056-.605.388-1.14.99-1.195zm-8.37-12.332c-.21.215-.49.322-.77.322s-.56-.107-.77-.322l-4.653-4.66c-.43-.43-.43-1.125 0-1.554.428-.42 1.123-.42 1.55 0l4.656 4.67c.43.43.43 1.13 0 1.558zm-6.81 5.085c-.28 0-.56-.108-.77-.322l-4.65-4.66c-.424-.43-.424-1.125 0-1.554.43-.43 1.128-.43 1.556 0l4.654 4.66c.43.43.43 1.125 0 1.554-.215.214-.496.322-.776.322zm-2.5-14.406c-.21.215-.49.322-.77.322s-.56-.107-.77-.322l-4.653-4.66c-.43-.43-.43-1.125 0-1.554.43-.43 1.124-.43 1.55 0l4.655 4.66c.43.43.43 1.125 0 1.554zm-9.31-9.322c-.21.215-.49.322-.77.322s-.56-.107-.77-.322l-4.65-4.66c-.43-.43-.43-1.125 0-1.554.427-.43 1.122-.43 1.55 0l4.655 4.66c.43.43.43 1.126 0 1.554zm-7.9-9.47c-.11 0-.23-.017-.34-.056-.01-.002-.01-.008-.02-.012-.557-.203-.856-.812-.667-1.378.667-1.99 1.08-4.07 1.23-6.177.044-.6.547-1.05 1.143-1.02h.03c.605.04 1.06.57 1.017 1.17-.167 2.29-.617 4.55-1.34 6.71-.154.46-.58.75-1.04.75zm1.14-13.03c-.01.003-.02.002-.03.004-.05.008-.11.014-.16.014-.52 0-.98-.374-1.08-.906-.37-2.077-.99-4.1-1.87-6.01-.24-.544-.01-1.18.52-1.442l.03-.016c.55-.25 1.2-.01 1.455.544.95 2.08 1.634 4.28 2.035 6.54.105.597-.293 1.167-.89 1.273zm.73 27.263c-.21.215-.49.322-.77.322s-.56-.107-.77-.322l-4.656-4.66c-.427-.43-.427-1.125 0-1.554.43-.42 1.125-.42 1.553 0l4.655 4.67c.43.43.43 1.13 0 1.558zm-15.76-47.582c-.18.408-.58.656-1 .656-.14 0-.28-.03-.42-.09-1.94-.8-3.98-1.36-6.07-1.65-.59-.087-1-.628-.93-1.22v-.024c.09-.6.648-1.015 1.24-.937 2.27.317 4.5.92 6.6 1.79.56.23.83.873.6 1.434 0 .01-.01.014-.01.023zm-13.78-1.17c-2.1.228-4.15.718-6.12 1.457-.12.047-.25.07-.38.07-.432 0-.84-.263-1.01-.687-.005-.01-.01-.016-.015-.024-.213-.57.073-1.21.64-1.42 2.135-.81 4.373-1.34 6.655-1.59.61-.067 1.144.37 1.21.97v.03c.047.59-.38 1.115-.973 1.18zm-5.69 8.02c1.37 0 2.736.334 3.947.964.538.28.747.943.468 1.482-.013.02-.035.04-.05.07-.205.32-.554.52-.92.52-.17 0-.345-.04-.507-.13-.9-.47-1.917-.72-2.937-.72-.865 0-1.705.17-2.496.51-.53.222-1.133 0-1.396-.505-.015-.027-.03-.05-.044-.078-.24-.56.02-1.206.58-1.44 1.063-.458 2.192-.688 3.352-.688h.003zm2.337 42.64c-.003.01-.003.018-.005.028-.137.49-.577.8-1.056.8-.1 0-.2-.01-.3-.04-2.2-.62-4.32-1.52-6.293-2.68-.523-.3-.7-.98-.392-1.5.006-.01.013-.01.018-.02.314-.503.97-.67 1.483-.37 1.817 1.066 3.763 1.896 5.785 2.468.58.16.91.75.768 1.327zm-7.91-28.966c-.19.128-.404.19-.615.19-.352 0-.7-.17-.91-.483-.96-1.42-1.47-3.08-1.47-4.803 0-.82.118-1.64.35-2.42.17-.58.783-.91 1.363-.74.03.01.056.027.084.038.526.204.82.778.66 1.33-.175.586-.26 1.194-.26 1.807 0 1.28.375 2.516 1.09 3.57.322.477.216 1.114-.224 1.468-.023.02-.043.04-.07.06zm-3.78-14.457c-.45.45-.886.92-1.297 1.398-.218.252-.524.382-.833.382-.243 0-.487-.083-.69-.25-.01-.005-.016-.01-.024-.016-.46-.396-.51-1.09-.116-1.55.44-.52.92-1.03 1.41-1.52 1.13-1.13 2.36-2.167 3.65-3.077.494-.35 1.18-.23 1.53.267l.013.027c.324.5.203 1.16-.284 1.51-1.19.84-2.324 1.8-3.366 2.84zm.143 35.79c.427.42.437 1.105.027 1.54l-.01.014c-.216.22-.5.33-.785.33-.277 0-.554-.104-.767-.313l-.16-.15c-1.57-1.57-2.945-3.32-4.083-5.21-.316-.52-.15-1.195.37-1.51.007-.005.017-.01.026-.012.515-.292 1.17-.125 1.48.386 1.046 1.74 2.31 3.353 3.756 4.8l.143.14zm-6.97-23.19c-.11.518-.565.873-1.073.873-.06 0-.13-.008-.19-.02-.01-.002-.02 0-.03-.003-.593-.126-.972-.708-.85-1.302.47-2.245 1.226-4.424 2.237-6.473.268-.544.927-.767 1.47-.498.01.004.016.01.025.016.52.277.733.92.47 1.455-.93 1.885-1.62 3.887-2.057 5.953zm-1.662 5.23c.008-.002.015 0 .023 0 .604-.015 1.095.453 1.12 1.05.087 2.11.437 4.2 1.04 6.214.17.573-.148 1.175-.713 1.358l-.02.01c-.1.03-.21.046-.312.046-.472 0-.908-.307-1.05-.784-.655-2.19-1.036-4.46-1.13-6.752-.026-.606.445-1.118 1.05-1.143zm-16.63 17.122c3.764-.537 3.976 4.272 3.976 4.272l-1.828.143-2.947.336c-1.4.86-2.32 1.885-2.86 2.638-.538.76-.07-2.04.47-3.55.535-1.5 1.683-3.73 3.19-3.83zm.96 12.15c1.1 0 1.994.553 1.994 1.233s-.89 1.23-1.99 1.23-1.99-.552-1.99-1.232c0-.68.898-1.23 2-1.23zM44.924 232.8h6.165c.23-.082.49-.082.72 0h14.6c.097 0 .193.013.286.038 4.287 1.156 4.226 4.957 4.15 9.77-.01.726-.024 1.493-.024 2.3 0 .606-.49 1.097-1.097 1.097H33.93c-.607 0-1.098-.49-1.098-1.098 0-6.676 5.424-12.107 12.09-12.107zm23.712 11.01c.005-.426.01-.838.018-1.24.077-4.82.01-6.854-2.394-7.573h-12.1l3.48 3.492c.43.42.43 1.12 0 1.55-.214.21-.495.32-.775.32s-.56-.11-.777-.32l-5.04-5.05h-2.79c1.89 1.782 3.9 4.71 3.165 8.75-.004.02-.01.04-.016.06h17.22zm-19.35 0c-.033-.145-.04-.298-.012-.452.87-4.793-3.536-7.713-4.614-8.348-4.97.132-9.04 3.936-9.58 8.8h14.2zm28.72-10.972c.093-.025.188-.038.285-.038h14.6c.237-.082.49-.082.727 0h6.164c6.668 0 12.09 5.43 12.09 12.107 0 .607-.49 1.098-1.095 1.098h-35.8c-.605 0-1.097-.49-1.097-1.098 0-.806-.012-1.573-.023-2.3-.077-4.81-.137-8.613 4.15-9.77zm17.41 10.97h14.2c-.538-4.863-4.608-8.668-9.575-8.8-1.1.64-5.49 3.52-4.61 8.35.03.154.02.307-.012.45zm-19.366-1.236l.01 1.237h17.22c-.01-.02-.017-.04-.02-.06-.735-4.04 1.273-6.97 3.163-8.76h-2.79l-5.04 5.04c-.213.215-.494.322-.775.322-.28 0-.56-.108-.775-.323-.425-.43-.425-1.123 0-1.55l3.49-3.494h-12.1c-2.403.72-2.47 2.752-2.392 7.574zm128.83.737h5.02c1.53 0 2.78 1.24 2.78 2.76s-1.25 2.77-2.786 2.77h-5.024c-1.534 0-2.783-1.248-2.783-2.77s1.25-2.77 2.783-2.77zm0 3.34h5.02c.32 0 .59-.26.59-.58 0-.32-.27-.578-.59-.578h-5.03c-.324 0-.59.257-.59.573 0 .315.266.572.59.572zm173.46-3.34h8.89c1.53 0 2.78 1.24 2.78 2.76s-1.25 2.77-2.786 2.77h-8.893c-1.53 0-2.78-1.248-2.78-2.77s1.25-2.77 2.784-2.77zm8.89 3.34c.32 0 .59-.26.59-.58 0-.32-.27-.578-.59-.578h-1.15c.04.186.06.376.06.573 0 .196-.02.387-.06.572h1.144zm-8.9 0h5.025c.325 0 .59-.26.59-.58 0-.32-.265-.578-.59-.578h-5.023c-.324 0-.59.257-.59.573 0 .315.266.572.59.572zm49.688-3.34h5.024c1.534 0 2.783 1.24 2.783 2.76s-1.25 2.77-2.783 2.77h-5.023c-1.538 0-2.787-1.248-2.787-2.77s1.25-2.77 2.786-2.77zm0 3.34h5.024c.325 0 .59-.26.59-.58 0-.32-.265-.578-.59-.578h-5.024c-.323 0-.59.257-.59.573 0 .315.267.572.59.572z" fill="#BD9451" fill-rule="evenodd"/></svg>